<svg viewBox="0 0 512 512" xmlns="http://www.w3.org/2000/svg">
  <!-- Background with gradient -->
  <defs>
    <linearGradient id="bgGradient" x1="0%" y1="0%" x2="100%" y2="100%">
      <stop offset="0%" style="stop-color:#58CC02;stop-opacity:1" />
      <stop offset="100%" style="stop-color:#4CAF50;stop-opacity:1" />
    </linearGradient>
    
    <linearGradient id="cardGradient" x1="0%" y1="0%" x2="100%" y2="100%">
      <stop offset="0%" style="stop-color:#ffffff;stop-opacity:0.95" />
      <stop offset="100%" style="stop-color:#f8f9fa;stop-opacity:0.9" />
    </linearGradient>
    
    <linearGradient id="coinGradient" x1="0%" y1="0%" x2="100%" y2="100%">
      <stop offset="0%" style="stop-color:#FFD700;stop-opacity:1" />
      <stop offset="100%" style="stop-color:#FFA500;stop-opacity:1" />
    </linearGradient>
    
    <!-- Subtle shadow filter -->
    <filter id="shadow" x="-50%" y="-50%" width="200%" height="200%">
      <feDropShadow dx="0" dy="4" stdDeviation="8" flood-color="#000000" flood-opacity="0.15"/>
    </filter>
    
    <filter id="cardShadow" x="-50%" y="-50%" width="200%" height="200%">
      <feDropShadow dx="0" dy="2" stdDeviation="4" flood-color="#000000" flood-opacity="0.1"/>
    </filter>
  </defs>
  
  <!-- Rounded square background -->
  <rect width="512" height="512" rx="120" ry="120" fill="url(#bgGradient)"/>
  
  <!-- Subtle background pattern -->
  <circle cx="100" cy="100" r="60" fill="#ffffff" opacity="0.05"/>
  <circle cx="400" cy="400" r="80" fill="#ffffff" opacity="0.05"/>
  <circle cx="450" cy="150" r="40" fill="#ffffff" opacity="0.08"/>
  
  <!-- Main receipt/card container -->
  <rect x="120" y="80" width="272" height="360" rx="24" ry="24" fill="url(#cardGradient)" filter="url(#cardShadow)"/>
  
  <!-- Receipt header with app title area -->
  <rect x="140" y="100" width="232" height="40" rx="8" ry="8" fill="#58CC02" opacity="0.1"/>
  
  <!-- Header dots (receipt style) -->
  <circle cx="160" cy="120" r="3" fill="#58CC02" opacity="0.6"/>
  <circle cx="175" cy="120" r="3" fill="#58CC02" opacity="0.6"/>
  <circle cx="190" cy="120" r="3" fill="#58CC02" opacity="0.6"/>
  
  <!-- Currency symbol in header -->
  <text x="320" y="130" font-family="Arial, sans-serif" font-size="20" font-weight="bold" fill="#58CC02" text-anchor="middle">₹</text>
  
  <!-- Transaction lines -->
  <!-- Line 1 -->
  <rect x="150" y="170" width="80" height="12" rx="6" ry="6" fill="#333333" opacity="0.7"/>
  <rect x="320" y="170" width="40" height="12" rx="6" ry="6" fill="#ff4444" opacity="0.8"/>
  
  <!-- Line 2 -->
  <rect x="150" y="200" width="100" height="12" rx="6" ry="6" fill="#333333" opacity="0.6"/>
  <rect x="310" y="200" width="50" height="12" rx="6" ry="6" fill="#ff4444" opacity="0.7"/>
  
  <!-- Line 3 -->
  <rect x="150" y="230" width="70" height="12" rx="6" ry="6" fill="#333333" opacity="0.5"/>
  <rect x="330" y="230" width="30" height="12" rx="6" ry="6" fill="#ff4444" opacity="0.6"/>
  
  <!-- Line 4 -->
  <rect x="150" y="260" width="90" height="12" rx="6" ry="6" fill="#333333" opacity="0.4"/>
  <rect x="315" y="260" width="45" height="12" rx="6" ry="6" fill="#ff4444" opacity="0.5"/>
  
  <!-- Total line (thicker) -->
  <rect x="150" y="310" width="60" height="16" rx="8" ry="8" fill="#333333" opacity="0.8"/>
  <rect x="300" y="310" width="60" height="16" rx="8" ry="8" fill="#58CC02" opacity="0.9"/>
  
  <!-- Coins floating around -->
  <!-- Coin 1 -->
  <circle cx="90" cy="200" r="25" fill="url(#coinGradient)" filter="url(#shadow)" opacity="0.9"/>
  <text x="90" y="210" font-family="Arial, sans-serif" font-size="24" font-weight="bold" fill="#ffffff" text-anchor="middle">₹</text>
  
  <!-- Coin 2 -->
  <circle cx="440" cy="280" r="20" fill="url(#coinGradient)" filter="url(#shadow)" opacity="0.8"/>
  <text x="440" y="287" font-family="Arial, sans-serif" font-size="18" font-weight="bold" fill="#ffffff" text-anchor="middle">₹</text>
  
  <!-- Coin 3 (smaller) -->
  <circle cx="420" cy="180" r="15" fill="url(#coinGradient)" filter="url(#shadow)" opacity="0.7"/>
  <text x="420" y="185" font-family="Arial, sans-serif" font-size="14" font-weight="bold" fill="#ffffff" text-anchor="middle">₹</text>
  
  <!-- Graph/Chart element -->
  <g opacity="0.6">
    <!-- Chart bars -->
    <rect x="160" y="380" width="12" height="30" rx="6" ry="6" fill="#58CC02"/>
    <rect x="180" y="370" width="12" height="40" rx="6" ry="6" fill="#4CAF50"/>
    <rect x="200" y="385" width="12" height="25" rx="6" ry="6" fill="#58CC02"/>
    <rect x="220" y="360" width="12" height="50" rx="6" ry="6" fill="#4CAF50"/>
    <rect x="240" y="375" width="12" height="35" rx="6" ry="6" fill="#58CC02"/>
  </g>
  
  <!-- Highlight effects -->
  <rect x="120" y="80" width="272" height="80" rx="24" ry="24" fill="url(#cardGradient)" opacity="0.3"/>
  
  <!-- Subtle shine effect -->
  <defs>
    <linearGradient id="shine" x1="0%" y1="0%" x2="100%" y2="100%">
      <stop offset="0%" style="stop-color:#ffffff;stop-opacity:0.3" />
      <stop offset="50%" style="stop-color:#ffffff;stop-opacity:0.1" />
      <stop offset="100%" style="stop-color:#ffffff;stop-opacity:0" />
    </linearGradient>
  </defs>
  <rect width="512" height="512" rx="120" ry="120" fill="url(#shine)"/>
</svg>